<?xml version="1.0" standalone="no"?>
<!DOCTYPE svg PUBLIC "-//W3C//DTD SVG 1.1//EN" "http://www.w3.org/Graphics/SVG/1.1/DTD/svg11.dtd">
<svg xmlns="http://www.w3.org/2000/svg" xmlns:xlink="http://www.w3.org/1999/xlink" version="1.1" id="Layer_1" x="0px" y="0px" viewBox="0 0 432 131" style="enable-background:new 0 0 432 131;" xml:space="preserve" width="432" height="131">
<style type="text/css">
	.st0{fill:#565656;}
	.st1{fill:#FFFFFF;}
</style>
<g>
	<g>
		<path class="st0" d="M-199.3,198.16c-2.86,0-5.32-0.53-7.39-1.6c-2.07-1.07-3.66-2.58-4.78-4.54c-1.12-1.96-1.68-4.29-1.68-6.97    c0-2.62,0.54-4.91,1.63-6.87c1.09-1.96,2.58-3.5,4.49-4.62c1.91-1.12,4.09-1.68,6.54-1.68c1.79,0,3.4,0.29,4.83,0.88    c1.43,0.59,2.65,1.43,3.67,2.53c1.02,1.1,1.79,2.44,2.32,4c0.53,1.57,0.8,3.33,0.8,5.29c0,0.62-0.22,1.09-0.65,1.42    c-0.43,0.33-1.04,0.49-1.83,0.49h-16.58v-3.72h14.52l-0.83,0.77c0-1.58-0.23-2.91-0.7-3.98c-0.47-1.07-1.14-1.89-2.01-2.45    c-0.88-0.57-1.97-0.85-3.28-0.85c-1.45,0-2.68,0.33-3.69,1.01c-1.02,0.67-1.79,1.62-2.33,2.84c-0.53,1.22-0.8,2.68-0.8,4.36v0.36    c0,2.82,0.66,4.93,1.99,6.33c1.33,1.39,3.28,2.09,5.86,2.09c0.9,0,1.9-0.11,3.02-0.33c1.12-0.22,2.18-0.61,3.18-1.16    c0.72-0.41,1.36-0.59,1.91-0.54c0.55,0.05,0.99,0.25,1.32,0.59c0.33,0.34,0.53,0.77,0.59,1.27c0.07,0.5-0.03,1.01-0.29,1.52    c-0.26,0.52-0.7,0.96-1.32,1.34c-1.21,0.76-2.59,1.32-4.16,1.68C-196.5,197.98-197.96,198.16-199.3,198.16z"/>
	</g>
	<g>
		<path class="st0" d="M-178.89,198.06c-1.03,0-1.83-0.28-2.4-0.85c-0.57-0.57-0.85-1.39-0.85-2.45v-17.51h-2.38    c-0.83,0-1.46-0.22-1.91-0.65c-0.45-0.43-0.67-1.02-0.67-1.78c0-0.79,0.22-1.39,0.67-1.81c0.45-0.41,1.08-0.62,1.91-0.62h4.24    l-1.86,1.71v-1.76c0-3.55,0.9-6.21,2.69-7.98c1.79-1.77,4.37-2.82,7.75-3.12l1.76-0.16c0.69-0.07,1.24,0.04,1.65,0.34    c0.41,0.29,0.69,0.67,0.83,1.14c0.14,0.47,0.15,0.94,0.05,1.42c-0.11,0.48-0.32,0.9-0.65,1.27c-0.33,0.36-0.75,0.56-1.27,0.59    l-0.72,0.05c-1.96,0.14-3.39,0.64-4.29,1.5c-0.9,0.86-1.34,2.17-1.34,3.93v1.91l-0.83-0.83h5.22c0.83,0,1.46,0.21,1.91,0.62    c0.45,0.41,0.67,1.02,0.67,1.81c0,0.76-0.23,1.35-0.67,1.78c-0.45,0.43-1.08,0.65-1.91,0.65h-4.39v17.51    C-175.69,196.96-176.76,198.06-178.89,198.06z"/>
	</g>
	<g>
		<path class="st0" d="M-161.85,167.22c-1.21,0-2.15-0.3-2.82-0.9c-0.67-0.6-1.01-1.44-1.01-2.51c0-1.1,0.33-1.94,1.01-2.53    c0.67-0.59,1.61-0.88,2.82-0.88c1.24,0,2.19,0.29,2.84,0.88c0.65,0.59,0.98,1.43,0.98,2.53c0,1.07-0.33,1.9-0.98,2.51    S-160.61,167.22-161.85,167.22z M-161.85,198.01c-1.03,0-1.83-0.31-2.38-0.93c-0.55-0.62-0.83-1.48-0.83-2.58v-18.96    c0-1.14,0.28-2.01,0.83-2.61c0.55-0.6,1.34-0.9,2.38-0.9c1.03,0,1.83,0.3,2.4,0.9c0.57,0.6,0.85,1.47,0.85,2.61v18.96    c0,1.1-0.28,1.96-0.83,2.58C-159.97,197.7-160.78,198.01-161.85,198.01z"/>
	</g>
	<g>
		<path class="st0" d="M-143.25,198.16c-2.86,0-5.01-0.82-6.46-2.45c-1.45-1.64-2.17-4.04-2.17-7.21v-24.43    c0-1.07,0.27-1.88,0.83-2.43c0.55-0.55,1.34-0.83,2.38-0.83s1.83,0.28,2.4,0.83c0.57,0.55,0.85,1.36,0.85,2.43v24.12    c0,1.58,0.34,2.75,1.01,3.51c0.67,0.76,1.63,1.14,2.87,1.14c0.28,0,0.54-0.01,0.77-0.03c0.24-0.02,0.48-0.04,0.72-0.08    c0.48-0.07,0.81,0.06,0.98,0.39c0.17,0.33,0.26,0.99,0.26,1.99c0,0.86-0.17,1.53-0.52,2.01c-0.34,0.48-0.91,0.77-1.71,0.88    c-0.34,0.03-0.7,0.07-1.08,0.1C-142.49,198.14-142.87,198.16-143.25,198.16z"/>
	</g>
	<g>
		<path class="st0" d="M-123.21,198.16c-2.86,0-5.32-0.53-7.39-1.6c-2.07-1.07-3.66-2.58-4.78-4.54c-1.12-1.96-1.68-4.29-1.68-6.97    c0-2.62,0.54-4.91,1.63-6.87c1.09-1.96,2.58-3.5,4.5-4.62c1.91-1.12,4.09-1.68,6.54-1.68c1.79,0,3.4,0.29,4.83,0.88    c1.43,0.59,2.65,1.43,3.67,2.53c1.02,1.1,1.79,2.44,2.32,4c0.53,1.57,0.8,3.33,0.8,5.29c0,0.62-0.22,1.09-0.65,1.42    c-0.43,0.33-1.04,0.49-1.83,0.49h-16.58v-3.72h14.52l-0.83,0.77c0-1.58-0.23-2.91-0.7-3.98c-0.46-1.07-1.14-1.89-2.01-2.45    c-0.88-0.57-1.97-0.85-3.28-0.85c-1.45,0-2.68,0.33-3.7,1.01c-1.02,0.67-1.79,1.62-2.32,2.84c-0.53,1.22-0.8,2.68-0.8,4.36v0.36    c0,2.82,0.66,4.93,1.99,6.33c1.32,1.39,3.28,2.09,5.86,2.09c0.89,0,1.9-0.11,3.02-0.33c1.12-0.22,2.18-0.61,3.18-1.16    c0.72-0.41,1.36-0.59,1.91-0.54c0.55,0.05,0.99,0.25,1.32,0.59c0.33,0.34,0.52,0.77,0.59,1.27c0.07,0.5-0.03,1.01-0.28,1.52    c-0.26,0.52-0.7,0.96-1.32,1.34c-1.21,0.76-2.59,1.32-4.16,1.68S-121.86,198.16-123.21,198.16z"/>
	</g>
	<g>
		<path class="st0" d="M-96.19,198.16c-2.24,0-4.11-0.38-5.6-1.14c-1.5-0.76-2.61-1.87-3.33-3.33c-0.72-1.46-1.08-3.28-1.08-5.45    v-11h-2.69c-0.83,0-1.46-0.22-1.91-0.65c-0.45-0.43-0.67-1.02-0.67-1.78c0-0.79,0.23-1.39,0.67-1.81    c0.45-0.41,1.08-0.62,1.91-0.62h2.69v-4.7c0-1.07,0.28-1.88,0.85-2.43c0.57-0.55,1.37-0.83,2.4-0.83c1.03,0,1.82,0.28,2.38,0.83    c0.55,0.55,0.83,1.36,0.83,2.43v4.7h5.48c0.83,0,1.46,0.21,1.91,0.62c0.45,0.41,0.67,1.02,0.67,1.81c0,0.76-0.22,1.35-0.67,1.78    c-0.45,0.43-1.09,0.65-1.91,0.65h-5.48v10.64c0,1.65,0.36,2.89,1.09,3.72c0.72,0.83,1.89,1.24,3.51,1.24    c0.59,0,1.1-0.05,1.55-0.15c0.45-0.1,0.84-0.17,1.19-0.21c0.41-0.03,0.76,0.1,1.03,0.39c0.28,0.29,0.41,0.89,0.41,1.78    c0,0.69-0.11,1.3-0.33,1.83c-0.23,0.53-0.63,0.9-1.21,1.11c-0.45,0.14-1.03,0.27-1.76,0.39C-95,198.1-95.64,198.16-96.19,198.16z"/>
	</g>
	<g>
		<path class="st0" d="M-79.61,198.16c-1.83,0-3.45-0.35-4.88-1.06c-1.43-0.71-2.55-1.66-3.36-2.87c-0.81-1.21-1.21-2.56-1.21-4.08    c0-1.86,0.48-3.33,1.45-4.42c0.96-1.08,2.53-1.87,4.7-2.35c2.17-0.48,5.08-0.72,8.73-0.72h2.58v3.72h-2.53    c-2.14,0-3.84,0.1-5.11,0.31c-1.28,0.21-2.18,0.56-2.71,1.06c-0.53,0.5-0.8,1.2-0.8,2.09c0,1.14,0.4,2.07,1.19,2.79    c0.79,0.72,1.89,1.08,3.31,1.08c1.13,0,2.14-0.27,3.02-0.8c0.88-0.53,1.58-1.27,2.09-2.2c0.52-0.93,0.77-2,0.77-3.2v-5.94    c0-1.72-0.38-2.96-1.14-3.72c-0.76-0.76-2.03-1.13-3.82-1.13c-1,0-2.07,0.12-3.23,0.36c-1.16,0.24-2.37,0.66-3.64,1.24    c-0.65,0.31-1.23,0.4-1.73,0.26c-0.5-0.14-0.89-0.42-1.16-0.85c-0.28-0.43-0.41-0.9-0.41-1.42c0-0.52,0.14-1.02,0.41-1.52    c0.27-0.5,0.74-0.87,1.39-1.11c1.58-0.66,3.11-1.12,4.57-1.39c1.46-0.28,2.8-0.41,4-0.41c2.48,0,4.52,0.38,6.12,1.14    c1.6,0.76,2.8,1.9,3.59,3.44c0.79,1.53,1.19,3.51,1.19,5.92v12.4c0,1.07-0.26,1.89-0.77,2.45c-0.52,0.57-1.26,0.85-2.22,0.85    c-0.96,0-1.71-0.28-2.25-0.85c-0.53-0.57-0.8-1.39-0.8-2.45v-2.48h0.41c-0.24,1.21-0.72,2.25-1.42,3.12    c-0.7,0.88-1.59,1.56-2.66,2.04C-77.01,197.92-78.23,198.16-79.61,198.16z"/>
	</g>
	<g>
		<path class="st0" d="M-57.91,197.9c-0.76,0-1.39-0.22-1.89-0.65c-0.5-0.43-0.76-0.99-0.77-1.68s0.27-1.41,0.85-2.17l8.37-10.33    v3.05l-7.85-9.66c-0.62-0.76-0.91-1.48-0.88-2.17c0.04-0.69,0.3-1.25,0.8-1.68c0.5-0.43,1.13-0.65,1.89-0.65    c0.79,0,1.45,0.14,1.99,0.41c0.53,0.28,1.02,0.71,1.47,1.29l6.2,7.95h-2.27l6.25-7.95c0.48-0.59,0.98-1.02,1.5-1.29    c0.52-0.27,1.15-0.41,1.91-0.41c0.79,0,1.43,0.22,1.91,0.67c0.48,0.45,0.73,1.02,0.75,1.71c0.02,0.69-0.28,1.41-0.9,2.17    l-7.8,9.56v-2.89l8.37,10.23c0.62,0.72,0.91,1.43,0.88,2.12c-0.04,0.69-0.3,1.26-0.8,1.71c-0.5,0.45-1.14,0.67-1.94,0.67    c-0.76,0-1.39-0.14-1.91-0.41c-0.52-0.28-1.02-0.71-1.5-1.29l-6.71-8.47h2.17l-6.66,8.47c-0.45,0.55-0.93,0.97-1.45,1.27    C-56.47,197.76-57.12,197.9-57.91,197.9z"/>
	</g>
</g>
<g>
	<g>
		<g>
			<g>
				<path class="st0" d="M-124.97,131.26c-36.95,0-70.21-20.51-86.8-53.53c-3.24-6.44-0.64-14.29,5.81-17.53      c6.44-3.24,14.29-0.64,17.53,5.81c12.13,24.14,36.45,39.14,63.47,39.14c27.01,0,51.34-15,63.48-39.15      c3.24-6.44,11.09-9.04,17.54-5.8c6.44,3.24,9.04,11.09,5.8,17.53C-54.76,110.75-88.02,131.26-124.97,131.26z"/>
			</g>
		</g>
	</g>
	<g>
		<g>
			<path class="st0" d="M-40.91,46.53h-110.71c-7.21,0-13.06-5.85-13.06-13.06s5.85-13.06,13.06-13.06h96.32     c-6.43-32.58-35.31-57.29-69.67-57.29c-38.86,0-70.71,31.6-71,70.45c-0.05,7.21-5.98,13.05-13.16,12.96     c-7.21-0.05-13.01-5.94-12.96-13.16c0.4-53.14,43.96-96.37,97.12-96.37c53.15,0,96.72,43.23,97.12,96.37     c0.03,3.48-1.34,6.83-3.79,9.3C-34.09,45.14-37.43,46.53-40.91,46.53z"/>
		</g>
	</g>
</g>
<g>
	<g>
		<g>
			<path class="st1" d="M153.21,87.77c-0.55-0.58-1.29-0.91-2.21-1c-0.93-0.08-2,0.22-3.21,0.92c-1.68,0.92-3.46,1.58-5.34,1.95     c-1.88,0.38-3.57,0.56-5.08,0.56c-4.34,0-7.62-1.17-9.85-3.51c-1.77-1.86-2.84-4.48-3.19-7.86h26.24c1.32,0,2.35-0.27,3.08-0.82     c0.72-0.55,1.08-1.35,1.08-2.39c0-3.29-0.45-6.26-1.34-8.89c-0.9-2.63-2.2-4.88-3.91-6.73c-1.71-1.85-3.76-3.27-6.16-4.25     c-2.4-0.99-5.11-1.48-8.12-1.48c-4.11,0-7.76,0.94-10.98,2.82c-3.21,1.89-5.72,4.47-7.55,7.77c-1.82,3.3-2.73,7.15-2.73,11.54     c0,4.52,0.94,8.42,2.82,11.72c1.88,3.3,4.56,5.85,8.03,7.64c3.47,1.79,7.61,2.69,12.41,2.69c2.26,0,4.7-0.3,7.33-0.91     c2.63-0.61,4.96-1.55,6.99-2.82c1.04-0.64,1.78-1.39,2.21-2.26c0.43-0.87,0.6-1.72,0.48-2.56     C154.1,89.06,153.76,88.36,153.21,87.77z M125.52,68.12c0.9-2.06,2.21-3.65,3.91-4.78c1.71-1.13,3.78-1.69,6.21-1.69     c2.2,0,4.03,0.48,5.51,1.43c1.47,0.96,2.6,2.33,3.38,4.13c0.66,1.49,1.03,3.28,1.13,5.38h-21.31     C124.55,70.94,124.95,69.44,125.52,68.12z"/>
		</g>
		<g>
			<path class="st1" d="M190.75,41c-0.18,0.82-0.54,1.52-1.09,2.13c-0.55,0.61-1.26,0.94-2.13,1l-1.21,0.08     c-3.3,0.24-5.7,1.08-7.2,2.52c-1.51,1.45-2.26,3.65-2.26,6.6v1.82h7.38c1.39,0,2.46,0.35,3.21,1.04c0.75,0.7,1.13,1.71,1.13,3.04     c0,1.27-0.38,2.27-1.13,2.99c-0.75,0.73-1.82,1.09-3.21,1.09h-7.38v29.42c0,3.7-1.79,5.55-5.38,5.55c-1.73,0-3.08-0.47-4.04-1.43     c-0.95-0.95-1.43-2.33-1.43-4.12V63.31h-3.99c-1.39,0-2.46-0.36-3.21-1.09c-0.75-0.72-1.13-1.72-1.13-2.99     c0-1.33,0.38-2.34,1.13-3.04c0.75-0.69,1.82-1.04,3.21-1.04h3.99v-0.09c0-5.95,1.51-10.42,4.52-13.41     c3-2.97,7.34-4.73,13.01-5.24l2.96-0.27c1.15-0.11,2.08,0.08,2.77,0.57c0.7,0.49,1.16,1.13,1.39,1.91     C190.89,39.39,190.92,40.19,190.75,41z"/>
		</g>
		<g>
			<path class="st1" d="M200.12,98.19c-1.74,0-3.07-0.52-3.99-1.56c-0.93-1.04-1.39-2.49-1.39-4.34V60.44     c0-1.91,0.46-3.37,1.39-4.38c0.92-1.01,2.26-1.52,3.99-1.52s3.08,0.51,4.03,1.52c0.96,1.01,1.43,2.47,1.43,4.38v31.85     c0,1.85-0.46,3.3-1.39,4.34C203.27,97.67,201.91,98.19,200.12,98.19z"/>
		</g>
		<g>
			<path class="st1" d="M231.36,98.45c-4.8,0-8.42-1.37-10.85-4.12c-2.43-2.75-3.64-6.78-3.64-12.11V41.17     c0-1.79,0.46-3.15,1.39-4.08c0.92-0.92,2.26-1.39,3.99-1.39c1.74,0,3.08,0.47,4.04,1.39c0.95,0.93,1.43,2.29,1.43,4.08V81.7     c0,2.66,0.57,4.63,1.69,5.9c1.13,1.27,2.73,1.91,4.82,1.91c0.47,0,0.9-0.01,1.3-0.04c0.41-0.03,0.81-0.07,1.22-0.13     c0.81-0.12,1.36,0.1,1.65,0.65c0.29,0.55,0.43,1.67,0.43,3.34c0,1.45-0.29,2.58-0.87,3.39c-0.58,0.81-1.53,1.3-2.87,1.48     c-0.58,0.06-1.18,0.12-1.82,0.17C232.63,98.42,231.99,98.45,231.36,98.45z"/>
		</g>
		<g>
			<path class="st1" d="M281.05,87.77c-0.55-0.58-1.29-0.91-2.21-1c-0.93-0.08-2,0.22-3.21,0.92c-1.68,0.92-3.46,1.58-5.34,1.95     c-1.88,0.38-3.57,0.56-5.08,0.56c-4.34,0-7.62-1.17-9.85-3.51c-1.77-1.86-2.84-4.48-3.19-7.86h26.24c1.32,0,2.35-0.27,3.08-0.82     c0.72-0.55,1.08-1.35,1.08-2.39c0-3.29-0.45-6.26-1.35-8.89c-0.89-2.63-2.2-4.88-3.9-6.73c-1.71-1.85-3.76-3.27-6.16-4.25     c-2.41-0.99-5.11-1.48-8.12-1.48c-4.11,0-7.77,0.94-10.98,2.82c-3.21,1.89-5.72,4.47-7.55,7.77c-1.82,3.3-2.73,7.15-2.73,11.54     c0,4.52,0.94,8.42,2.82,11.72c1.88,3.3,4.55,5.85,8.03,7.64c3.47,1.79,7.61,2.69,12.41,2.69c2.26,0,4.7-0.3,7.33-0.91     s4.96-1.55,6.99-2.82c1.04-0.64,1.78-1.39,2.21-2.26c0.43-0.87,0.6-1.72,0.48-2.56C281.93,89.06,281.6,88.36,281.05,87.77z      M253.36,68.12c0.9-2.06,2.2-3.65,3.91-4.78c1.71-1.13,3.78-1.69,6.21-1.69c2.19,0,4.03,0.48,5.51,1.43     c1.47,0.96,2.6,2.33,3.38,4.13c0.65,1.49,1.03,3.28,1.13,5.38h-21.31C252.39,70.94,252.79,69.44,253.36,68.12z"/>
		</g>
		<g>
			<path class="st1" d="M310.42,98.45c-3.76,0-6.9-0.64-9.42-1.91c-2.52-1.27-4.38-3.14-5.6-5.6c-1.21-2.46-1.82-5.51-1.82-9.16     V63.31h-4.51c-1.39,0-2.46-0.36-3.21-1.09c-0.75-0.72-1.13-1.72-1.13-2.99c0-1.33,0.38-2.34,1.13-3.04     c0.75-0.69,1.82-1.04,3.21-1.04h4.51v-7.9c0-1.79,0.48-3.15,1.43-4.08c0.96-0.92,2.3-1.39,4.04-1.39c1.74,0,3.06,0.46,3.99,1.39     c0.93,0.93,1.39,2.29,1.39,4.08v7.9h9.2c1.39,0,2.46,0.35,3.21,1.04c0.75,0.7,1.13,1.71,1.13,3.04c0,1.27-0.37,2.27-1.13,2.99     c-0.75,0.73-1.82,1.09-3.21,1.09h-9.2v17.88c0,2.78,0.61,4.86,1.82,6.25c1.21,1.39,3.18,2.08,5.9,2.08c0.98,0,1.85-0.09,2.6-0.26     c0.75-0.17,1.42-0.29,2-0.35c0.7-0.06,1.27,0.16,1.74,0.65c0.47,0.49,0.7,1.49,0.7,2.99c0,1.16-0.19,2.19-0.56,3.08     c-0.38,0.9-1.06,1.52-2.04,1.87c-0.76,0.23-1.74,0.45-2.95,0.65C312.42,98.35,311.35,98.45,310.42,98.45z"/>
		</g>
		<g>
			<path class="st1" d="M358.77,61.95c-1.33-2.57-3.34-4.49-6.03-5.77c-2.69-1.27-6.12-1.91-10.29-1.91c-2.02,0-4.27,0.24-6.72,0.7     c-2.46,0.46-5.03,1.24-7.68,2.34c-1.11,0.41-1.89,1.03-2.35,1.87c-0.46,0.84-0.69,1.69-0.69,2.56c0,0.86,0.23,1.66,0.69,2.38     c0.46,0.73,1.12,1.21,1.95,1.44c0.84,0.23,1.81,0.08,2.91-0.44c2.14-0.98,4.18-1.68,6.12-2.08c1.94-0.41,3.75-0.61,5.42-0.61     c3.01,0,5.16,0.64,6.43,1.91s1.91,3.36,1.91,6.25v1.82h-3.04c-6.14,0-11.02,0.41-14.67,1.22c-3.64,0.81-6.28,2.12-7.9,3.94     c-1.62,1.83-2.43,4.3-2.43,7.43c0,2.54,0.68,4.83,2.04,6.85c1.36,2.03,3.24,3.63,5.64,4.82c2.4,1.18,5.14,1.78,8.21,1.78     c2.31,0,4.36-0.41,6.16-1.22c1.79-0.81,3.28-1.95,4.47-3.43c0.7-0.87,1.27-1.84,1.69-2.91v1.83c0,1.79,0.45,3.17,1.35,4.12     c0.89,0.96,2.15,1.43,3.77,1.43c1.62,0,2.87-0.47,3.73-1.43c0.87-0.95,1.3-2.33,1.3-4.12V71.89     C360.76,67.85,360.1,64.54,358.77,61.95z M350.44,80.57c0,2.03-0.44,3.82-1.3,5.38c-0.87,1.56-2.04,2.79-3.52,3.69     c-1.48,0.9-3.17,1.34-5.08,1.34c-2.37,0-4.22-0.6-5.55-1.82c-1.33-1.21-2-2.77-2-4.68c0-1.51,0.45-2.68,1.35-3.52     c0.89-0.84,2.41-1.43,4.55-1.78c2.14-0.35,5.01-0.52,8.6-0.52h2.95V80.57z"/>
		</g>
		<g>
			<path class="st1" d="M409.63,94.02c-0.06,1.16-0.51,2.11-1.35,2.87c-0.84,0.75-1.92,1.12-3.25,1.12c-1.28,0-2.35-0.23-3.21-0.69     c-0.87-0.46-1.71-1.19-2.52-2.17l-9.45-11.92l-9.38,11.92c-0.76,0.93-1.57,1.64-2.44,2.13c-0.86,0.49-1.96,0.73-3.29,0.73     c-1.28,0-2.33-0.36-3.17-1.08c-0.84-0.72-1.27-1.66-1.3-2.82c-0.03-1.16,0.45-2.37,1.43-3.64l11.98-14.8L372.57,62     c-1.04-1.27-1.54-2.49-1.48-3.65c0.06-1.15,0.51-2.09,1.35-2.82c0.84-0.72,1.89-1.08,3.17-1.08c1.33,0,2.44,0.23,3.34,0.69     c0.89,0.47,1.72,1.19,2.47,2.17l8.51,10.93l8.59-10.93c0.81-0.98,1.65-1.7,2.51-2.17c0.87-0.46,1.94-0.69,3.22-0.69     c1.33,0,2.4,0.37,3.21,1.12c0.8,0.76,1.23,1.71,1.25,2.87c0.03,1.16-0.47,2.37-1.51,3.64l-11.12,13.63l12.07,14.76     C409.19,91.69,409.68,92.87,409.63,94.02z"/>
		</g>
	</g>
	<g>
		<g>
			<g>
				<g>
					<path class="st1" d="M55.91,98.45c-11.97,0-22.74-6.64-28.11-17.34c-1.05-2.09-0.21-4.63,1.88-5.68       c2.09-1.05,4.63-0.21,5.68,1.88C39.28,85.14,47.16,90,55.91,90c8.75,0,16.63-4.86,20.56-12.68c1.05-2.09,3.59-2.93,5.68-1.88       c2.09,1.05,2.93,3.59,1.88,5.68C78.65,91.81,67.87,98.45,55.91,98.45z"/>
				</g>
			</g>
		</g>
		<g>
			<g>
				<path class="st1" d="M83.13,71.01H47.28c-2.34,0-4.23-1.89-4.23-4.23s1.89-4.23,4.23-4.23h31.19C76.39,52.01,67.04,44,55.91,44      c-12.58,0-22.9,10.23-22.99,22.81c-0.02,2.34-1.94,4.23-4.26,4.2c-2.34-0.02-4.21-1.92-4.2-4.26      c0.13-17.21,14.24-31.21,31.45-31.21c17.21,0,31.32,14,31.45,31.21c0.01,1.13-0.43,2.21-1.23,3.01      C85.34,70.56,84.26,71.01,83.13,71.01z"/>
			</g>
		</g>
	</g>
	<g>
		<path class="st1" d="M200.12,47.16c-2.03,0-3.6-0.51-4.73-1.52c-1.13-1.01-1.69-2.42-1.69-4.21c0-1.85,0.56-3.27,1.69-4.25    c1.12-0.98,2.7-1.48,4.73-1.48c2.08,0,3.67,0.49,4.77,1.48c1.1,0.99,1.65,2.4,1.65,4.25c0,1.79-0.55,3.2-1.65,4.21    C203.79,46.66,202.2,47.16,200.12,47.16z"/>
	</g>
</g>
</svg>