<?xml version="1.0" encoding="UTF-8"?>
<svg version="1.1" xmlns="http://www.w3.org/2000/svg" width="1080" height="1350">
<path d="M0 0 C0.87398437 0.21398437 1.74796875 0.42796875 2.6484375 0.6484375 C8.9092733 2.24654874 13.11763921 4.82780078 18 9 C18.66902344 9.51433594 19.33804687 10.02867187 20.02734375 10.55859375 C29.52592731 18.16110689 35.38134863 28.99549261 37 41 C37.24896456 44.49092016 37.38377816 47.98378863 37.51318359 51.48095703 C37.55452549 52.55125027 37.59586739 53.6215435 37.63846207 54.72426987 C37.77420033 58.36022778 37.90037364 61.99640395 38.0234375 65.6328125 C38.06741039 66.92331638 38.11138329 68.21382027 38.15668869 69.54343033 C39.42478476 107.52385338 39.45134424 145.52556384 39.58993733 183.52325225 C39.61684752 190.87269556 39.64757014 198.22211496 39.68060303 205.5715332 C39.90811329 256.32019225 40.09276521 307.06931397 40.12248993 357.81851959 C40.12497332 361.46086304 40.12892016 365.1032026 40.13311768 368.74554443 C40.13894974 374.36041535 40.13908074 379.97525804 40.13444519 385.59012985 C40.13339126 387.5693599 40.13384144 389.54859158 40.13612366 391.52782059 C40.14606862 401.77754381 39.98947133 412.00601998 39.57373047 422.24804688 C39.53762728 423.18428139 39.50152409 424.1205159 39.46432686 425.08512115 C38.94473765 436.65602961 37.82935754 448.76473269 32 459 C31.484375 459.99 30.96875 460.98 30.4375 462 C22.55923907 471.69632115 10.37201161 479.440207 -2 482 C-3.52753267 482.11022634 -5.05878579 482.17412499 -6.5900116 482.20333862 C-7.5092082 482.22287975 -8.42840481 482.24242088 -9.37545586 482.26255417 C-10.37843775 482.27887516 -11.38141964 482.29519615 -12.41479492 482.31201172 C-13.47774843 482.33250202 -14.54070194 482.35299232 -15.63586617 482.37410355 C-19.18815702 482.44011451 -22.74051673 482.49804664 -26.29296875 482.5546875 C-27.53465506 482.57562344 -28.77634136 482.59655937 -30.05565453 482.61812973 C-59.00146846 483.09999938 -87.94676856 483.15601298 -116.89590073 483.12877274 C-121.39134438 483.12465959 -125.88678752 483.12288398 -130.38223267 483.12130737 C-190.75360559 483.09750806 -251.12461933 482.8672668 -311.49538022 482.60972524 C-320.18999918 482.57271885 -328.88462462 482.53765699 -337.57925415 482.50323486 C-348.27169805 482.46071407 -358.96411803 482.41433455 -369.6565249 482.36332208 C-375.17971568 482.33699433 -380.70290285 482.31202235 -386.22611618 482.29089165 C-391.34193733 482.27121319 -396.4577183 482.24705758 -401.5735029 482.21950126 C-403.42464363 482.2102571 -405.27579283 482.20254362 -407.12694705 482.19658303 C-452.01438096 482.04743308 -452.01438096 482.04743308 -469.30859375 465.8359375 C-483.21359773 450.98692407 -482.42762485 431.82895599 -482.60037231 412.59558105 C-482.60751245 411.8412388 -482.61465259 411.08689654 -482.6220091 410.30969542 C-482.64443954 407.91480205 -482.66602988 405.51990216 -482.6875 403.125 C-482.69806401 401.97686575 -482.69806401 401.97686575 -482.70884144 400.80553687 C-482.94274348 375.34321818 -483.05271458 349.88266679 -483.0403173 324.41931748 C-483.03902717 321.61460957 -483.0382329 318.80990183 -483.0375309 316.00519371 C-483.02452495 270.05947564 -482.93146307 224.11384044 -482.76427555 178.16843033 C-482.71879667 165.6001686 -482.67928517 153.03194223 -482.65356445 140.46362305 C-482.63056142 129.22414515 -482.59724558 117.98475468 -482.55129844 106.74534625 C-482.52761281 100.87480759 -482.50871791 95.00435327 -482.50238609 89.13376808 C-482.49632528 83.68165297 -482.47629043 78.22976397 -482.44572449 72.77773285 C-482.43699761 70.79568999 -482.43321045 68.81361759 -482.43499184 66.83155632 C-482.4456201 49.54866904 -482.07787549 29.90468871 -469.3125 16.75 C-465.35638298 13 -465.35638298 13 -463 13 C-462.67 12.01 -462.34 11.02 -462 10 C-459.99609375 8.5 -459.99609375 8.5 -457.4375 7 C-456.19806641 6.2575 -456.19806641 6.2575 -454.93359375 5.5 C-428.03877274 -8.25181261 -390.00303266 -3.08077648 -360.75 -3.125 C-359.55543182 -3.12776947 -358.36086365 -3.13053894 -357.13009644 -3.13339233 C-342.51906452 -3.15809368 -327.9427873 -2.91088209 -313.34118652 -2.3901825 C-296.83817162 -1.82160695 -280.32922348 -1.65909446 -263.81829834 -1.46777344 C-260.35081658 -1.42690101 -256.8833734 -1.38316479 -253.41592789 -1.33933926 C-249.22000608 -1.28640087 -245.02406745 -1.23486571 -240.828125 -1.18359375 C-240.05178963 -1.17403593 -239.27545425 -1.16447811 -238.47559357 -1.15463066 C-234.88663179 -1.11093555 -231.29768604 -1.06983308 -227.70861816 -1.03585815 C-225.46238086 -1.01413957 -223.21617221 -0.98800779 -220.97009277 -0.9536438 C-215.12960926 -0.89410744 -209.39594329 -1.24600216 -203.57684326 -1.73266602 C-196.61606998 -2.25291561 -189.63860412 -2.46231156 -182.6640625 -2.71875 C-180.9943438 -2.78186102 -179.32463058 -2.84511729 -177.65492249 -2.9085083 C-172.31177513 -3.11010683 -166.96840985 -3.30550187 -161.625 -3.5 C-160.71594028 -3.53323868 -159.80688057 -3.56647736 -158.87027359 -3.60072327 C-26.81340749 -8.42707093 -26.81340749 -8.42707093 0 0 Z " fill="#FEFEFE" transform="translate(761,410)"/>
<path d="M0 0 C1.13853267 -0.00445668 1.13853267 -0.00445668 2.30006599 -0.0090034 C4.82757817 -0.01763148 7.35504266 -0.01919364 9.88256836 -0.02069092 C11.70160522 -0.02532338 13.52064112 -0.03034862 15.3396759 -0.03573608 C20.27192907 -0.04882352 25.20416865 -0.05529826 30.13643646 -0.05974674 C33.22362956 -0.06268426 36.310819 -0.06679041 39.39801025 -0.07125092 C49.07347088 -0.08491817 58.74892309 -0.09458778 68.4243927 -0.09845281 C79.56226581 -0.10292739 90.70001582 -0.12045068 101.83785152 -0.1494534 C110.46660833 -0.17113588 119.09533068 -0.18116063 127.72411442 -0.18249393 C132.86821802 -0.18353755 138.0122058 -0.1893501 143.15628052 -0.20731354 C148.00234156 -0.22390742 152.84820112 -0.22589534 157.69428062 -0.21717453 C159.46180451 -0.21641009 161.22933975 -0.22066747 162.99683571 -0.23063278 C176.90549994 -0.30438029 189.77712996 1.26125702 203.03491211 5.76544189 C204.14890381 6.14285522 204.14890381 6.14285522 205.28540039 6.52789307 C218.52935639 11.22271464 230.34171865 18.21342892 241.15991211 27.14044189 C241.9578418 27.78626221 242.75577148 28.43208252 243.57788086 29.09747314 C261.87796004 44.56277242 274.81674022 67.9398271 280.15991211 91.14044189 C280.49635742 92.47268799 280.49635742 92.47268799 280.83959961 93.83184814 C286.86900782 122.20310457 279.79952168 153.48637413 265.15991211 178.14044189 C262.39405547 182.36040699 259.39873263 186.27390209 256.15991211 190.14044189 C255.32717773 191.13688721 254.49444336 192.13333252 253.63647461 193.15997314 C239.66000153 209.35856007 222.1435456 219.92590329 202.15991211 227.14044189 C201.49567604 227.38037174 200.83143997 227.62030159 200.14707553 227.86750203 C194.88255463 229.70128616 189.73262775 230.96349385 184.22512817 231.80467224 C183.40407282 231.93108131 182.58301747 232.05749037 181.73708165 232.18773001 C173.18549934 233.41342739 164.74000018 233.55685624 156.11645508 233.51275635 C154.40726501 233.51519368 152.69807639 233.51892203 150.9888916 233.52381897 C146.41043034 233.53310155 141.83218762 233.52391149 137.25374365 233.51048684 C132.42511373 233.49903401 127.59649242 233.5032903 122.76785278 233.50523376 C114.66689555 233.50611225 106.56602271 233.49512877 98.46508789 233.47662354 C89.14293598 233.45544852 79.82090736 233.45195184 70.49873626 233.45818549 C61.47148338 233.46390935 52.44427324 233.45819899 43.41702652 233.44701195 C39.60169802 233.44240725 35.78639601 233.44147395 31.97106552 233.44359779 C27.46793424 233.44550222 22.96492578 233.43721411 18.46182251 233.4215374 C16.82414382 233.41734939 15.18645252 233.4164062 13.5487709 233.4192276 C-0.47118419 233.43969108 -14.95567504 233.09696398 -28.34008789 228.51544189 C-29.122146 228.25601807 -29.9042041 227.99659424 -30.70996094 227.72930908 C-60.58270013 217.48378725 -85.2576666 197.43728322 -99.84008789 169.14044189 C-106.92630867 154.50180161 -111.57961217 138.42017418 -111.84008789 122.14044189 C-111.87875977 120.94032471 -111.91743164 119.74020752 -111.95727539 118.50372314 C-112.55437801 86.75776737 -100.82919081 57.61067766 -79.16430664 34.43341064 C-74.98199055 30.30732737 -70.54220042 26.65800689 -65.84008789 23.14044189 C-65.29642578 22.73293701 -64.75276367 22.32543213 -64.19262695 21.90557861 C-45.70706901 8.26447552 -23.11111101 -0.02873139 0 0 Z " fill="#29B454" transform="translate(454.840087890625,464.85955810546875)"/>
<path d="M0 0 C0.87398437 0.21398437 1.74796875 0.42796875 2.6484375 0.6484375 C8.9092733 2.24654874 13.11763921 4.82780078 18 9 C18.66902344 9.51433594 19.33804687 10.02867187 20.02734375 10.55859375 C29.52592731 18.16110689 35.38134863 28.99549261 37 41 C37.24896456 44.49092016 37.38377816 47.98378863 37.51318359 51.48095703 C37.55452549 52.55125027 37.59586739 53.6215435 37.63846207 54.72426987 C37.77420033 58.36022778 37.90037364 61.99640395 38.0234375 65.6328125 C38.06741039 66.92331638 38.11138329 68.21382027 38.15668869 69.54343033 C39.42478476 107.52385338 39.45134424 145.52556384 39.58993733 183.52325225 C39.61684752 190.87269556 39.64757014 198.22211496 39.68060303 205.5715332 C39.90811329 256.32019225 40.09276521 307.06931397 40.12248993 357.81851959 C40.12497332 361.46086304 40.12892016 365.1032026 40.13311768 368.74554443 C40.13894974 374.36041535 40.13908074 379.97525804 40.13444519 385.59012985 C40.13339126 387.5693599 40.13384144 389.54859158 40.13612366 391.52782059 C40.14606862 401.77754381 39.98947133 412.00601998 39.57373047 422.24804688 C39.53762728 423.18428139 39.50152409 424.1205159 39.46432686 425.08512115 C38.94473765 436.65602961 37.82935754 448.76473269 32 459 C31.484375 459.99 30.96875 460.98 30.4375 462 C22.55923907 471.69632115 10.37201161 479.440207 -2 482 C-3.52753267 482.11022634 -5.05878579 482.17412499 -6.5900116 482.20333862 C-7.5092082 482.22287975 -8.42840481 482.24242088 -9.37545586 482.26255417 C-10.37843775 482.27887516 -11.38141964 482.29519615 -12.41479492 482.31201172 C-13.47774843 482.33250202 -14.54070194 482.35299232 -15.63586617 482.37410355 C-19.18815702 482.44011451 -22.74051673 482.49804664 -26.29296875 482.5546875 C-27.53465506 482.57562344 -28.77634136 482.59655937 -30.05565453 482.61812973 C-59.00146846 483.09999938 -87.94676856 483.15601298 -116.89590073 483.12877274 C-121.39134438 483.12465959 -125.88678752 483.12288398 -130.38223267 483.12130737 C-190.75360559 483.09750806 -251.12461933 482.8672668 -311.49538022 482.60972524 C-320.18999918 482.57271885 -328.88462462 482.53765699 -337.57925415 482.50323486 C-348.27169805 482.46071407 -358.96411803 482.41433455 -369.6565249 482.36332208 C-375.17971568 482.33699433 -380.70290285 482.31202235 -386.22611618 482.29089165 C-391.34193733 482.27121319 -396.4577183 482.24705758 -401.5735029 482.21950126 C-403.42464363 482.2102571 -405.27579283 482.20254362 -407.12694705 482.19658303 C-452.01438096 482.04743308 -452.01438096 482.04743308 -469.30859375 465.8359375 C-483.21359773 450.98692407 -482.42762485 431.82895599 -482.60037231 412.59558105 C-482.60751245 411.8412388 -482.61465259 411.08689654 -482.6220091 410.30969542 C-482.64443954 407.91480205 -482.66602988 405.51990216 -482.6875 403.125 C-482.69806401 401.97686575 -482.69806401 401.97686575 -482.70884144 400.80553687 C-482.94274348 375.34321818 -483.05271458 349.88266679 -483.0403173 324.41931748 C-483.03902717 321.61460957 -483.0382329 318.80990183 -483.0375309 316.00519371 C-483.02452495 270.05947564 -482.93146307 224.11384044 -482.76427555 178.16843033 C-482.71879667 165.6001686 -482.67928517 153.03194223 -482.65356445 140.46362305 C-482.63056142 129.22414515 -482.59724558 117.98475468 -482.55129844 106.74534625 C-482.52761281 100.87480759 -482.50871791 95.00435327 -482.50238609 89.13376808 C-482.49632528 83.68165297 -482.47629043 78.22976397 -482.44572449 72.77773285 C-482.43699761 70.79568999 -482.43321045 68.81361759 -482.43499184 66.83155632 C-482.4456201 49.54866904 -482.07787549 29.90468871 -469.3125 16.75 C-465.35638298 13 -465.35638298 13 -463 13 C-462.67 12.01 -462.34 11.02 -462 10 C-459.99609375 8.5 -459.99609375 8.5 -457.4375 7 C-456.19806641 6.2575 -456.19806641 6.2575 -454.93359375 5.5 C-428.03877274 -8.25181261 -390.00303266 -3.08077648 -360.75 -3.125 C-359.55543182 -3.12776947 -358.36086365 -3.13053894 -357.13009644 -3.13339233 C-342.51906452 -3.15809368 -327.9427873 -2.91088209 -313.34118652 -2.3901825 C-296.83817162 -1.82160695 -280.32922348 -1.65909446 -263.81829834 -1.46777344 C-260.35081658 -1.42690101 -256.8833734 -1.38316479 -253.41592789 -1.33933926 C-249.22000608 -1.28640087 -245.02406745 -1.23486571 -240.828125 -1.18359375 C-240.05178963 -1.17403593 -239.27545425 -1.16447811 -238.47559357 -1.15463066 C-234.88663179 -1.11093555 -231.29768604 -1.06983308 -227.70861816 -1.03585815 C-225.46238086 -1.01413957 -223.21617221 -0.98800779 -220.97009277 -0.9536438 C-215.12960926 -0.89410744 -209.39594329 -1.24600216 -203.57684326 -1.73266602 C-196.61606998 -2.25291561 -189.63860412 -2.46231156 -182.6640625 -2.71875 C-180.9943438 -2.78186102 -179.32463058 -2.84511729 -177.65492249 -2.9085083 C-172.31177513 -3.11010683 -166.96840985 -3.30550187 -161.625 -3.5 C-160.71594028 -3.53323868 -159.80688057 -3.56647736 -158.87027359 -3.60072327 C-26.81340749 -8.42707093 -26.81340749 -8.42707093 0 0 Z M-456 18 C-456.886875 18.61875 -457.77375 19.2375 -458.6875 19.875 C-466.76056591 27.293493 -470.68213477 36.22236151 -472 47 C-472.09005457 49.30825421 -472.13417213 51.61861697 -472.1398077 53.92862034 C-472.14275912 54.59265701 -472.14571055 55.25669368 -472.14875141 55.94085267 C-472.15738792 58.15772945 -472.15901803 60.37455374 -472.16062927 62.59144592 C-472.16536398 64.2003078 -472.1705154 65.80916849 -472.17604691 67.41802782 C-472.18991595 71.83319644 -472.19752602 76.24835685 -472.2040199 80.66354167 C-472.21040311 84.45201388 -472.22047136 88.24047269 -472.23058056 92.02893651 C-472.26385689 104.50667902 -472.28541499 116.98442968 -472.30378041 129.46220198 C-472.30857811 132.71206451 -472.31356109 135.96192671 -472.31858563 139.21178889 C-472.34955474 159.40443851 -472.37623197 179.59709103 -472.39300442 199.78975773 C-472.39695372 204.46392382 -472.40095675 209.13808987 -472.4050293 213.81225586 C-472.40603766 214.97395538 -472.40704602 216.1356549 -472.40808494 217.33255743 C-472.42509079 236.15001151 -472.46620208 254.96733407 -472.51705229 273.78472394 C-472.56885789 293.11500487 -472.59795034 312.44521819 -472.6052013 331.77556795 C-472.60985927 342.62451684 -472.62456623 353.47325016 -472.6649456 364.3221302 C-472.69929334 373.56147207 -472.71316554 382.80055942 -472.70052146 392.03996146 C-472.69470615 396.75069584 -472.69847902 401.46089224 -472.7286911 406.17154503 C-472.75617232 410.49180078 -472.7554665 414.81113939 -472.73318065 419.13141661 C-472.72997387 420.68664153 -472.73673087 422.24192919 -472.75497787 423.79705036 C-472.91173947 438.0305736 -469.59957521 449.43827411 -459.4375 459.875 C-449.82046626 468.2590807 -440.05019225 471.11934809 -427.42992496 471.13142776 C-426.69655577 471.1334804 -425.96318657 471.13553303 -425.20759407 471.13764787 C-422.7549205 471.14329363 -420.30230352 471.14186363 -417.84962463 471.14044189 C-416.07149518 471.1430269 -414.2933663 471.14604044 -412.51523823 471.1494453 C-407.63241735 471.15750223 -402.74961119 471.15930413 -397.86678445 471.16004276 C-392.59948927 471.16189552 -387.33220167 471.16944382 -382.06491089 471.17617798 C-370.5506937 471.18975102 -359.03647999 471.19578399 -347.52225614 471.20018864 C-340.33381085 471.20295195 -333.14536691 471.20718939 -325.95692253 471.21169281 C-306.05571992 471.22388253 -286.15451838 471.23418347 -266.25331211 471.2375679 C-264.98003 471.23778747 -263.7067479 471.23800703 -262.39488148 471.23823325 C-260.48039817 471.23856067 -260.48039817 471.23856067 -258.52723843 471.2388947 C-255.94092913 471.23933817 -253.35461984 471.23978473 -250.76831055 471.24023438 C-248.84396359 471.24056652 -248.84396359 471.24056652 -246.88074093 471.24090537 C-226.08052544 471.24485572 -205.28034493 471.2623183 -184.48014296 471.2855939 C-163.127167 471.3092954 -141.77420862 471.32176915 -120.42121929 471.32293582 C-108.43123559 471.32385308 -96.44129751 471.32961865 -84.45132637 471.34775543 C-74.24494701 471.36313996 -64.03862737 471.3682865 -53.83223862 471.36001733 C-48.62419358 471.35610543 -43.4162689 471.3570669 -38.2082386 471.37107468 C-33.44072253 471.38378058 -28.67341766 471.38264523 -23.90590202 471.37048396 C-22.18121386 471.36852126 -20.4565109 471.37163177 -18.73184354 471.38032833 C-16.38627846 471.39140701 -14.04146066 471.38394228 -11.69591618 471.3719368 C-10.39347275 471.37253389 -9.09102932 471.37313097 -7.74911791 471.37374616 C4.87138727 470.11561947 15.02485219 462.39774174 23 453 C27.42225219 446.348742 29.24869246 438.94967534 29.25447559 430.99773693 C29.25768207 430.32574838 29.26088855 429.65375983 29.26419219 428.96140799 C29.27247071 426.71744462 29.26657555 424.47374967 29.26069641 422.2297821 C29.26371808 420.60156972 29.26760764 418.97335875 29.27228898 417.34515029 C29.2825758 412.87662573 29.2803854 408.40818134 29.27610838 403.93965018 C29.27364239 399.11812386 29.28265379 394.2966169 29.29014587 389.47509766 C29.3028987 380.03112532 29.30468581 370.58718141 29.30234561 361.14320191 C29.30056284 353.46658199 29.30231122 345.78997071 29.30657005 338.11335182 C29.30746284 336.47470377 29.30746284 336.47470377 29.30837366 334.80295173 C29.30958541 332.58368478 29.31079954 330.36441783 29.31201603 328.14515088 C29.32289395 307.3298629 29.32072796 286.51459112 29.31463119 265.69930223 C29.30946258 246.6593288 29.32071555 227.61940655 29.33972941 208.57944324 C29.3591046 189.02769394 29.36736431 169.47596885 29.36360615 149.92420989 C29.36169353 138.94803389 29.36418762 127.97190143 29.37832069 116.99573326 C29.39023143 107.650917 29.39164285 98.30617108 29.37953053 88.96135386 C29.37363953 84.1945684 29.37254854 79.42791163 29.38453293 74.66113472 C29.39538378 70.29442703 29.39229783 65.92795561 29.37827124 61.56125901 C29.37562211 59.98458486 29.37799766 58.40789224 29.38600711 56.83123621 C29.45115954 43.04518187 27.78030279 31.9787076 17.85546875 21.80078125 C5.13226881 10.07462934 -7.82725465 8.5477446 -24.53527832 8.61904907 C-26.30647459 8.61558831 -28.07766871 8.61082094 -29.84885836 8.60486734 C-34.69410307 8.59238522 -39.5391697 8.59851503 -44.38441491 8.60782599 C-49.61830343 8.61462758 -54.85216182 8.60412975 -60.08604431 8.59588623 C-70.33059673 8.58255856 -80.57508315 8.58542235 -90.81963813 8.59412415 C-99.14689988 8.60090408 -107.47414315 8.60181608 -115.80140686 8.5985527 C-117.58035231 8.59786316 -117.58035231 8.59786316 -119.39523605 8.59715968 C-121.80462913 8.59620048 -124.21402221 8.59522784 -126.62341529 8.5942419 C-149.20707959 8.58569084 -171.79070733 8.59551771 -194.37436563 8.611643 C-213.74487534 8.62504592 -233.11533111 8.62271774 -252.48583984 8.60888672 C-274.98965642 8.59282592 -297.49344097 8.58651478 -319.99726248 8.59572351 C-322.39770603 8.59667914 -324.79814958 8.59762225 -327.19859314 8.5985527 C-328.37960375 8.59901553 -329.56061435 8.59947836 -330.77741316 8.59995521 C-339.09299539 8.60254359 -347.40855727 8.59817736 -355.72413635 8.59111404 C-365.86044027 8.58269331 -375.9966745 8.5849913 -386.13297045 8.60095628 C-391.30292891 8.60883121 -396.47277125 8.61194378 -401.64272881 8.60200882 C-406.37879571 8.59304542 -411.11463927 8.59802192 -415.85068601 8.61394148 C-417.560499 8.6172823 -419.270331 8.61561099 -420.98013169 8.60831411 C-434.397884 8.55546066 -445.04097935 9.66403095 -456 18 Z " fill="#D1D3D3" transform="translate(761,410)"/>
<path d="M0 0 C1.51400391 0.01740234 1.51400391 0.01740234 3.05859375 0.03515625 C4.07050781 0.04417969 5.08242188 0.05320312 6.125 0.0625 C6.90746094 0.07410156 7.68992187 0.08570313 8.49609375 0.09765625 C8.89699219 1.01015137 9.29789063 1.92264648 9.7109375 2.86279297 C17.17953481 19.84388511 24.73244815 36.77374942 32.68359375 53.53515625 C37.89772915 64.52892129 43.0209244 75.5559605 47.99609375 86.66015625 C48.28012054 87.2925119 48.56414734 87.92486755 48.85678101 88.5763855 C53.49609375 98.91603348 53.49609375 98.91603348 53.49609375 100.09765625 C49.86609375 100.09765625 46.23609375 100.09765625 42.49609375 100.09765625 C41.24347572 97.61978321 39.99396814 95.14041723 38.74609375 92.66015625 C38.39804687 91.97244141 38.05 91.28472656 37.69140625 90.57617188 C35.12571166 85.46853912 32.82363971 80.33463466 30.49609375 75.09765625 C12.01609375 75.09765625 -6.46390625 75.09765625 -25.50390625 75.09765625 C-29.46390625 83.67765625 -33.42390625 92.25765625 -37.50390625 101.09765625 C-41.13390625 101.09765625 -44.76390625 101.09765625 -48.50390625 101.09765625 C-47.05270124 96.44510554 -45.20647552 92.05928345 -43.15234375 87.6484375 C-42.82127121 86.93069153 -42.49019867 86.21294556 -42.14909363 85.47344971 C-41.43477139 83.9257636 -40.71902104 82.37873597 -40.00198364 80.83230591 C-38.86173578 78.37312456 -37.72514904 75.91228185 -36.58959961 73.45092773 C-35.40964443 70.89333267 -34.229504 68.3358256 -33.04826355 65.77882385 C-29.37101491 57.81791202 -25.71905983 49.84556275 -22.07553101 41.86917114 C-21.07340898 39.6754855 -20.07057654 37.48212574 -19.06762695 35.28881836 C-16.13917987 28.88254627 -13.21779542 22.47327464 -10.31640625 16.0546875 C-9.84517334 15.01304443 -9.37394043 13.97140137 -8.88842773 12.89819336 C-8.03427983 11.00802635 -7.18208994 9.11697275 -6.33227539 7.22485352 C-5.78494751 6.01333618 -5.78494751 6.01333618 -5.2265625 4.77734375 C-4.91468994 4.08366699 -4.60281738 3.38999023 -4.28149414 2.67529297 C-3.04742155 0.1715011 -2.93527168 0.11448017 0 0 Z " fill="#010402" transform="translate(531.50390625,531.90234375)"/>
<path d="M0 0 C43.14270613 0 43.14270613 0 52.375 9.09765625 C57.46859013 15.06058507 58.61593146 20.27751395 58.3203125 28.1015625 C57.54531795 35.11431806 54.96221963 40.03778037 50 45 C44.9 48 44.9 48 42 48 C45.1471837 53.81138376 48.83080553 59.06040002 52.75 64.375 C53.93437664 65.98544789 55.11678538 67.59734557 56.296875 69.2109375 C57.07562988 70.26740479 57.07562988 70.26740479 57.87011719 71.34521484 C59 73 59 73 59 74 C55.864884 74.52120316 53.12155721 74.66664194 50 74 C47.22585129 71.66810689 45.50022126 68.82536287 43.625 65.75 C43.11839844 64.97269531 42.61179687 64.19539062 42.08984375 63.39453125 C41.14510654 61.94395049 40.21328416 60.48481029 39.29931641 59.01464844 C38.00150065 56.93639857 38.00150065 56.93639857 36.33740234 54.86816406 C35 53 35 53 35 51 C26.09 51 17.18 51 8 51 C8 58.59 8 66.18 8 74 C5.36 74 2.72 74 0 74 C0 49.58 0 25.16 0 0 Z " fill="#0B0B0B" transform="translate(452,751)"/>
<path d="M0 0 C4.32555356 -1.10439665 7.68846363 -1.24807632 12 0 C16.37023497 3.63344198 19.29603113 8.83190273 22.36572266 13.54736328 C25.2666723 17.90095458 28.43418459 22.05851131 31.5625 26.25 C32.73174612 27.83760169 33.8997942 29.42608672 35.06640625 31.015625 C36.58007495 33.07660197 38.09490787 35.11975322 39.68334961 37.12402344 C41 39 41 39 41 41 C41.66 41 42.32 41 43 41 C43.2371875 40.29746094 43.474375 39.59492187 43.71875 38.87109375 C45.23248531 35.47903443 47.18474928 32.96755352 49.5 30.0625 C53.19197205 25.37604144 56.74339059 20.62136214 60.1875 15.75 C60.60781494 15.16661865 61.02812988 14.5832373 61.46118164 13.98217773 C63.31960911 11.40186061 65.11442493 8.81642262 66.796875 6.1171875 C68.40432854 3.67538903 69.69394948 1.79927732 72 0 C75.78630774 -0.71507714 79.20115142 -0.55643171 83 0 C79.95897565 5.60735222 76.44684652 10.64941936 72.625 15.75 C72.02010742 16.56476807 71.41521484 17.37953613 70.79199219 18.21899414 C68.86459781 20.81511186 66.93255583 23.40772285 65 26 C62.4122822 29.47593445 59.82989463 32.9557569 57.25 36.4375 C56.65396973 37.23575195 56.05793945 38.03400391 55.44384766 38.85644531 C54.89003418 39.6037793 54.3362207 40.35111328 53.765625 41.12109375 C53.27868164 41.7752124 52.79173828 42.42933105 52.29003906 43.10327148 C50.99739624 45.00382828 49.97773006 46.92246792 49 49 C55.70443874 58.32520351 62.43735281 67.6284646 69.25 76.875 C69.83297852 77.66680664 70.41595703 78.45861328 71.01660156 79.27441406 C73.61629142 82.79804576 76.22682615 86.31152343 78.8828125 89.79296875 C79.52234863 90.63335693 79.52234863 90.63335693 80.17480469 91.49072266 C81.2864484 92.94653271 82.40466362 94.39731847 83.5234375 95.84765625 C85 98 85 98 85 100 C80.61768174 101.27916317 77.36976593 101.40754526 73 100 C68.29548246 95.75529051 65.09957705 89.9458963 61.72363281 84.64453125 C58.82490472 80.19707762 55.65968772 75.95145144 52.5 71.6875 C51.92459473 70.89432373 51.34918945 70.10114746 50.75634766 69.28393555 C47.7527783 65.17905743 44.71773728 61.47497459 41 58 C35.8955989 64.53797757 30.86834208 71.11365075 26.0625 77.875 C25.65193359 78.44250977 25.24136719 79.01001953 24.81835938 79.59472656 C22.55079763 82.74294601 20.40260471 85.92722861 18.34765625 89.21875 C11.7112009 99.52102274 11.7112009 99.52102274 6.63671875 100.94140625 C3.60680305 100.93784583 0.94416808 100.69365217 -2 100 C-0.63653947 97.09829705 0.92639619 94.58836398 2.8359375 92.015625 C3.68164307 90.8719043 3.68164307 90.8719043 4.54443359 89.70507812 C5.14852051 88.89490234 5.75260742 88.08472656 6.375 87.25 C6.99842285 86.40888672 7.6218457 85.56777344 8.26416016 84.70117188 C11.78394062 79.95809122 15.32147182 75.22835339 18.86914062 70.50610352 C19.86460527 69.17994706 20.85813089 67.85233264 21.84960938 66.52319336 C24.05988769 63.56246072 26.28685926 60.62455648 28.59375 57.73828125 C29.72296875 56.29001953 29.72296875 56.29001953 30.875 54.8125 C31.53242187 53.99394531 32.18984375 53.17539062 32.8671875 52.33203125 C34.25982118 50.06404376 34.25982118 50.06404376 33.52734375 47.6484375 C31.50729107 44.14563515 29.16284085 41.00472989 26.6875 37.8125 C25.60274336 36.39040747 24.51946501 34.96718637 23.4375 33.54296875 C22.87417969 32.80224121 22.31085937 32.06151367 21.73046875 31.29833984 C16.70219879 24.61999145 11.86140615 17.80026116 7 11 C6.5875 10.42330566 6.175 9.84661133 5.75 9.25244141 C0 1.19395616 0 1.19395616 0 0 Z " fill="#000401" transform="translate(591,532)"/>
<path d="M0 0 C5.89218482 4.04192865 9.64052159 8.96062726 11.90234375 15.74609375 C11.90234375 19.37609375 11.90234375 23.00609375 11.90234375 26.74609375 C-3.27765625 26.74609375 -18.45765625 26.74609375 -34.09765625 26.74609375 C-30.0971094 37.08055971 -30.0971094 37.08055971 -22.53515625 43.55859375 C-15.70182675 45.91919849 -8.68004917 45.77009115 -2.03515625 42.87109375 C0.42947398 41.63189419 2.59654719 40.28329146 4.90234375 38.74609375 C6.22234375 40.39609375 7.54234375 42.04609375 8.90234375 43.74609375 C2.43471855 49.99139434 -2.9600024 52.84469313 -12.03515625 53.12109375 C-21.17127845 52.84528629 -28.48402274 50.18682181 -35.09765625 43.74609375 C-41.8478132 35.05296359 -42.26077663 25.4254165 -41.09765625 14.74609375 C-38.89150707 7.16889915 -32.91311088 1.46871498 -26.15625 -2.3515625 C-17.24554784 -6.22186748 -8.1456702 -4.8691995 0 0 Z " fill="#0C0C0C" transform="translate(563.09765625,773.25390625)"/>
<path d="M0 0 C26.73 0 53.46 0 81 0 C81 2.97 81 5.94 81 9 C69.45 9 57.9 9 46 9 C46 39.36 46 69.72 46 101 C42.37 101 38.74 101 35 101 C35 70.64 35 40.28 35 9 C23.45 9 11.9 9 0 9 C0 6.03 0 3.06 0 0 Z " fill="#010502" transform="translate(401,532)"/>
<path d="M0 0 C4.24880132 3.50987935 7.56645869 7.46700748 8.25985718 13.11761475 C8.34603453 15.60219402 8.33741923 18.06901689 8.29296875 20.5546875 C8.28872391 21.45623566 8.28447906 22.35778381 8.28010559 23.28665161 C8.26339058 26.14974565 8.22575192 29.01212079 8.1875 31.875 C8.17244387 33.82290646 8.15875709 35.77082402 8.14648438 37.71875 C8.11351058 42.47944122 8.06177813 47.23959896 8 52 C5.69 52 3.38 52 1 52 C0.505 48.535 0.505 48.535 0 45 C-0.61875 45.763125 -1.2375 46.52625 -1.875 47.3125 C-6.50020427 51.91157318 -13.23393574 53.105001 -19.5625 53.4375 C-25.84812421 53.19231608 -31.17336239 50.91796949 -35.5 46.375 C-38.81545165 41.12553489 -38.57981044 36.10842549 -38 30 C-35.40029823 25.10056204 -31.3792995 23.05344581 -26.16503906 21.42797852 C-23.52152396 20.90541627 -21.05424801 20.88800932 -18.359375 20.90234375 C-16.75449219 20.90717773 -16.75449219 20.90717773 -15.1171875 20.91210938 C-14.00601563 20.92048828 -12.89484375 20.92886719 -11.75 20.9375 C-10.06003906 20.94426758 -10.06003906 20.94426758 -8.3359375 20.95117188 C-5.55723783 20.96294603 -2.77864591 20.9793916 0 21 C-0.11950142 19.39510532 -0.25065002 17.79107501 -0.38671875 16.1875 C-0.45850342 15.29417969 -0.53028809 14.40085937 -0.60424805 13.48046875 C-1.15183068 10.04836541 -2.45975363 8.32251096 -5 6 C-10.34862009 2.59963293 -16.93431999 3.3416596 -23 4 C-26.90112642 5.30037547 -30.43321373 6.96183642 -34 9 C-35.5625 7.1875 -35.5625 7.1875 -37 5 C-36 2 -36 2 -34.43359375 0.90234375 C-23.20925043 -4.52312161 -11.18865036 -6.92523319 0 0 Z " fill="#0B0B0B" transform="translate(653,773)"/>
<path d="M0 0 C0 0.33 0 0.66 0 1 C-143.88 1 -287.76 1 -436 1 C-436 0.67 -436 0.34 -436 0 C-427.47790985 -1.86939005 -419.1412187 -2.43221057 -410.4375 -2.625 C-409.7194519 -2.643349 -409.00140381 -2.661698 -408.26159668 -2.68060303 C-392.42751821 -3.07945596 -376.58823992 -3.10523957 -360.75 -3.125 C-358.95923538 -3.12901825 -358.95923538 -3.12901825 -357.1322937 -3.13311768 C-342.52051145 -3.15794398 -327.94354001 -2.91090894 -313.34118652 -2.3901825 C-296.83817162 -1.82160695 -280.32922348 -1.65909446 -263.81829834 -1.46777344 C-260.35081658 -1.42690101 -256.8833734 -1.38316479 -253.41592789 -1.33933926 C-249.22000608 -1.28640087 -245.02406745 -1.23486571 -240.828125 -1.18359375 C-240.05178963 -1.17403593 -239.27545425 -1.16447811 -238.47559357 -1.15463066 C-234.88663179 -1.11093555 -231.29768604 -1.06983308 -227.70861816 -1.03585815 C-225.46238086 -1.01413957 -223.21617221 -0.98800779 -220.97009277 -0.9536438 C-215.12960926 -0.89410744 -209.39594329 -1.24600216 -203.57684326 -1.73266602 C-196.61606998 -2.25291561 -189.63860412 -2.46231156 -182.6640625 -2.71875 C-180.9943438 -2.78186102 -179.32463058 -2.84511729 -177.65492249 -2.9085083 C-172.31177513 -3.11010683 -166.96840985 -3.30550187 -161.625 -3.5 C-160.71594028 -3.53323868 -159.80688057 -3.56647736 -158.87027359 -3.60072327 C-25.73780029 -8.46638168 -25.73780029 -8.46638168 0 0 Z " fill="#E8E9E9" transform="translate(761,410)"/>
<path d="M0 0 C4.08375 -0.0825 8.1675 -0.165 12.375 -0.25 C14.27451416 -0.30462402 14.27451416 -0.30462402 16.21240234 -0.36035156 C23.95829978 -0.43542513 31.56758231 0.18221261 37.68139648 5.44824219 C42.09047211 10.40211962 42.30431835 15.17592067 42.2109375 21.53515625 C41.78266216 26.53963294 39.74829867 29.23429903 36.3125 32.75 C29.29953798 38.0838021 20.35399024 37.24843108 12 37.125 C8.04 37.08375 4.08 37.0425 0 37 C0 24.79 0 12.58 0 0 Z " fill="#FBFBFB" transform="translate(460,758)"/>
<path d="M0 0 C0.66 0 1.32 0 2 0 C2.51908936 1.15411377 3.03817871 2.30822754 3.57299805 3.49731445 C5.52037137 7.82683954 7.46803076 12.15623589 9.41577148 16.4855957 C10.25471532 18.35047008 11.09358414 20.2153782 11.93237305 22.08032227 C12.74727737 23.89213753 13.56230877 25.70389565 14.37747192 27.51559448 C15.17093252 29.2793371 15.96396712 31.04327142 16.75656128 32.80740356 C18.38891882 36.43762906 20.02390805 40.06593161 21.69775391 43.67724609 C22.15456543 44.66418457 22.61137695 45.65112305 23.08203125 46.66796875 C23.46206299 47.47903076 23.84209473 48.29009277 24.23364258 49.12573242 C25 51 25 51 25 53 C9.16 53 -6.68 53 -23 53 C-17.38004345 38.38811297 -17.38004345 38.38811297 -15.09765625 33.53515625 C-14.60233398 32.47409668 -14.10701172 31.41303711 -13.59667969 30.31982422 C-13.09040039 29.24490723 -12.58412109 28.16999023 -12.0625 27.0625 C-7.88221446 18.10346375 -3.78612024 9.1331848 0 0 Z " fill="#28B252" transform="translate(533,544)"/>
<path d="M0 0 C3.15131847 2.98353994 5.81103751 6.04222473 6.23828125 10.46875 C6.26277344 11.4690625 6.28726563 12.469375 6.3125 13.5 C6.36857422 14.96953125 6.36857422 14.96953125 6.42578125 16.46875 C5.32431938 25.60380992 1.12709238 31.75596584 -5.390625 37.9765625 C-6.09523865 38.67268646 -6.79985229 39.36881042 -7.52581787 40.08602905 C-9.75338845 42.28033156 -12.00099277 44.45269637 -14.25 46.625 C-15.77481909 48.11968561 -17.2982708 49.61576751 -18.8203125 51.11328125 C-22.52899777 54.76136709 -26.26409812 58.37898349 -30 62 C-10.695 62.495 -10.695 62.495 9 63 C9 64.98 9 66.96 9 69 C-7.83 69 -24.66 69 -42 69 C-42 63 -42 63 -40.93359375 61.23657227 C-40.19302734 60.53359009 -40.19302734 60.53359009 -39.4375 59.81640625 C-38.89222656 59.2853125 -38.34695313 58.75421875 -37.78515625 58.20703125 C-37.19605469 57.66433594 -36.60695313 57.12164063 -36 56.5625 C-35.40058594 55.98757813 -34.80117188 55.41265625 -34.18359375 54.8203125 C-30.60839752 51.41499601 -26.92886451 48.14448064 -23.171875 44.94140625 C-20.10469208 42.19969777 -17.17476446 39.32983913 -14.25 36.4375 C-13.69441406 35.89480469 -13.13882812 35.35210938 -12.56640625 34.79296875 C-6.85449654 29.09488933 -2.90352984 23.92509383 -2.6875 15.625 C-2.7268887 11.89784416 -2.85739903 10.25879435 -4.6875 6.9375 C-10.2483801 2.27838424 -16.35822472 2.51199775 -23.31640625 2.66796875 C-28.17826512 3.10620629 -30.91354514 4.40667288 -35 7 C-35.99 7.33 -36.98 7.66 -38 8 C-38 8.66 -38 9.32 -38 10 C-41.47899158 8.60840337 -42.48052501 7.36748512 -44 4 C-31.6501431 -5.74504837 -13.79549127 -10.05921238 0 0 Z " fill="#040404" transform="translate(399,756)"/>
<path d="M0 0 C1.38276615 4.14829845 -0.02309034 5.92794161 -1.8515625 9.73828125 C-8.34690186 22.53012305 -20.1592332 28.86980066 -33 34 C-35.91350356 34.86461798 -38.55523827 35.14543941 -41.5900116 35.20333862 C-42.5092082 35.22287975 -43.42840481 35.24242088 -44.37545586 35.26255417 C-45.87992869 35.28703566 -45.87992869 35.28703566 -47.41479492 35.31201172 C-48.47774843 35.33250202 -49.54070194 35.35299232 -50.63586617 35.37410355 C-54.18815702 35.44011451 -57.74051673 35.49804664 -61.29296875 35.5546875 C-63.15549821 35.5860914 -63.15549821 35.5860914 -65.05565453 35.61812973 C-94.00146846 36.09999938 -122.94676856 36.15601298 -151.89590073 36.12877274 C-156.39134438 36.12465959 -160.88678752 36.12288398 -165.38223267 36.12130737 C-225.75360559 36.09750806 -286.12461933 35.8672668 -346.49538022 35.60972524 C-355.18999918 35.57271885 -363.88462462 35.53765699 -372.57925415 35.50323486 C-383.27169805 35.46071407 -393.96411803 35.41433455 -404.6565249 35.36332208 C-410.17971568 35.33699433 -415.70290285 35.31202235 -421.22611618 35.29089165 C-426.34193733 35.27121319 -431.4577183 35.24705758 -436.5735029 35.21950126 C-438.42464363 35.2102571 -440.27579283 35.20254362 -442.12694705 35.19658303 C-474.04041855 35.09054238 -474.04041855 35.09054238 -484 31 C-480.27625507 29.82318095 -477.86358917 30.4731912 -474.11340383 31.50265678 C-470.84141659 32.27264718 -467.67064903 32.25223978 -464.31805038 32.25447559 C-463.2180634 32.25928531 -463.2180634 32.25928531 -462.09585446 32.26419219 C-459.64925093 32.27246482 -457.20289396 32.26657757 -454.75628662 32.26069641 C-452.9801439 32.26371835 -451.20400248 32.26760805 -449.42786336 32.27228898 C-444.55500474 32.28257238 -439.68221968 32.28038626 -434.80935502 32.27610838 C-429.55085853 32.27364176 -424.29237977 32.28265459 -419.03388977 32.29014587 C-408.73446241 32.30289712 -398.43506111 32.30468599 -388.13562718 32.30234561 C-379.76301496 32.3005626 -371.39041065 32.30231174 -363.01779938 32.30657005 C-361.23035123 32.30746284 -361.23035123 32.30746284 -359.40679301 32.30837366 C-356.98596706 32.30958541 -354.56514111 32.31079954 -352.14431515 32.31201603 C-329.4395125 32.32289342 -306.7347247 32.32072826 -284.0299212 32.31463119 C-263.26480161 32.3094631 -242.49972894 32.32071427 -221.73461863 32.33972941 C-200.40870895 32.35910821 -179.08282147 32.36736365 -157.75690293 32.36360615 C-145.78581336 32.36169402 -133.81476372 32.36418283 -121.84368134 32.37832069 C-111.65134333 32.39023606 -101.45906983 32.39163767 -91.26673093 32.37953053 C-86.06831276 32.37364269 -80.87001256 32.37253983 -75.67160225 32.38453293 C-70.90822942 32.39539444 -66.14507304 32.39228507 -61.38171032 32.37827124 C-59.66303948 32.37562505 -57.94435166 32.3779884 -56.22569749 32.38600711 C-38.76349366 32.46179328 -24.32292769 29.72539959 -11.26171875 17.40234375 C-6.42029464 12.25989845 -2.94708868 6.3853588 0 0 Z " fill="#FEFEFE" transform="translate(796,857)"/>
<path d="M0 0 C2.92909019 -0.30193597 5.14327908 -0.50911202 8 0 C10.22322331 2.06775315 11.56462302 3.59867767 13.1875 6.0625 C13.82075195 6.95243652 13.82075195 6.95243652 14.46679688 7.86035156 C15.66920016 9.55802606 16.83724041 11.27503853 18 13 C20.8992824 17.65620198 20.8992824 17.65620198 25 21 C25.27312012 20.42475586 25.54624023 19.84951172 25.82763672 19.25683594 C27.87280073 15.31983133 30.51471819 11.82727257 33.125 8.25 C33.94097656 7.06083984 33.94097656 7.06083984 34.7734375 5.84765625 C38.89175167 0.25714099 38.89175167 0.25714099 42.21386719 -0.51367188 C44.4296875 -0.515625 44.4296875 -0.515625 48 0 C45.08861996 5.69617835 41.36019771 10.30136704 37.26171875 15.19921875 C34.22559879 18.95897352 31.5728216 22.91375393 29 27 C32.95414232 32.33076965 36.90994348 37.65292338 41.046875 42.84375 C41.54856201 43.47394043 42.05024902 44.10413086 42.56713867 44.75341797 C43.5552914 45.99018186 44.54757844 47.22365506 45.54418945 48.45361328 C49 52.78094281 49 52.78094281 49 55 C45.86804814 55.48742297 44.0186845 55.73858635 41 55 C37.99666058 52.46295661 35.87091186 49.394897 33.625 46.1875 C33.01011719 45.35412109 32.39523437 44.52074219 31.76171875 43.66210938 C29.43148718 40.48799744 27.18422842 37.27634263 25 34 C21.42164277 35.44412793 19.94211328 37.13891196 17.86328125 40.3515625 C17.28513672 41.20234375 16.70699219 42.053125 16.11132812 42.9296875 C14.91446622 44.72303107 13.7346044 46.52784027 12.57226562 48.34375 C8.17741036 54.7204088 8.17741036 54.7204088 4.53662109 55.58496094 C2.27809338 55.58584542 0.21506808 55.42652145 -2 55 C2.07854455 48.53251497 6.65573362 42.68561836 11.6328125 36.89453125 C13.99569755 34.00526092 16.16081185 31.25157905 18 28 C17.62832184 24.55540257 16.0657679 22.4817577 13.9453125 19.8125 C13.33042969 19.03132812 12.71554687 18.25015625 12.08203125 17.4453125 C11.43621094 16.63835938 10.79039062 15.83140625 10.125 15 C8.85662237 13.39595072 7.58838827 11.79178793 6.3203125 10.1875 C5.75586426 9.47980469 5.19141602 8.77210938 4.60986328 8.04296875 C4.0786084 7.36878906 3.54735352 6.69460938 3 6 C2.43651855 5.29488281 1.87303711 4.58976563 1.29248047 3.86328125 C0 2 0 2 0 0 Z " fill="#080808" transform="translate(675,770)"/>
<path d="M0 0 C0 0.33 0 0.66 0 1 C-70.29 0.67 -140.58 0.34 -213 0 C-213 -0.33 -213 -0.66 -213 -1 C-202.89620436 -1.87495478 -192.79548638 -2.34623999 -182.6640625 -2.71875 C-180.9943438 -2.78186102 -179.32463058 -2.84511729 -177.65492249 -2.9085083 C-172.31177513 -3.11010683 -166.96840985 -3.30550187 -161.625 -3.5 C-160.71594028 -3.53323868 -159.80688057 -3.56647736 -158.87027359 -3.60072327 C-25.73780029 -8.46638168 -25.73780029 -8.46638168 0 0 Z " fill="#FEFEFE" transform="translate(761,410)"/>
<path d="M0 0 C8.34879032 7.94153226 8.34879032 7.94153226 9.5625 16.4375 C-3.3075 16.4375 -16.1775 16.4375 -29.4375 16.4375 C-28.30726889 8.52588226 -28.30726889 8.52588226 -24.625 4.625 C-23.59439453 3.50158203 -23.59439453 3.50158203 -22.54296875 2.35546875 C-16.45663839 -3.18885075 -7.33155917 -3.3325269 0 0 Z " fill="#FBFBFB" transform="translate(558.4375,777.5625)"/>
<path d="M0 0 C2.31 0 4.62 0 7 0 C7 25.74 7 51.48 7 78 C4.69 78 2.38 78 0 78 C0 52.26 0 26.52 0 0 Z " fill="#000000" transform="translate(591,747)"/>
<path d="M0 0 C1.1653125 0.02255859 2.330625 0.04511719 3.53125 0.06835938 C6.39715945 0.12708703 9.26040922 0.20917125 12.125 0.3125 C12.61321104 9.33030028 12.61321104 9.33030028 10.8046875 12.96875 C5.71190577 18.17176511 1.98829083 20.29254373 -5.375 20.625 C-10.45379398 20.49674763 -13.94848421 19.04636421 -17.75 15.625 C-19.38648 12.26112443 -20.04679758 8.86761468 -18.875 5.3125 C-13.65276624 -1.08953789 -7.78937315 -0.28572757 0 0 Z " fill="#FBFBFB" transform="translate(640.875,799.6875)"/>
<path d="M0 0 C9.27441682 0.34914416 18.54571167 0.57209993 27.82585144 0.71464539 C29.24110095 0.73751244 30.65634852 0.76049955 32.07159424 0.78359985 C36.42323916 0.85405017 40.77492984 0.92132143 45.12663269 0.98808289 C46.57434602 1.01044524 48.02205923 1.03281458 49.46977234 1.05519104 C57.70950707 1.18219473 65.94929248 1.30560598 74.18913269 1.42558289 C74.18913269 1.75558289 74.18913269 2.08558289 74.18913269 2.42558289 C10.82913269 2.42558289 -52.53086731 2.42558289 -117.81086731 2.42558289 C-117.81086731 2.09558289 -117.81086731 1.76558289 -117.81086731 1.42558289 C-111.0776608 0.18780558 -104.38864036 0.05075677 -97.56086731 -0.13691711 C-96.83033142 -0.15776367 -96.09979553 -0.17861023 -95.34712219 -0.2000885 C-63.60708182 -1.07319641 -31.73049467 -1.22005326 0 0 Z " fill="#FFFFFF" transform="translate(447.8108673095703,407.5744171142578)"/>
<path d="M0 0 C0.33 0 0.66 0 1 0 C1.06316406 0.57105469 1.12632812 1.14210938 1.19140625 1.73046875 C3.09733721 14.34973797 10.29511127 26.21533276 20.5078125 33.8828125 C22.640293 35.32006425 24.7858417 36.69303156 27 38 C26.01 38.495 26.01 38.495 25 39 C14.62901381 34.0065622 6.09285099 25.85682578 2 15 C0.29781626 9.9130141 -0.22284359 5.34824606 0 0 Z " fill="#FBFCFC" transform="translate(280,846)"/>
</svg>
